<svg xmlns="http://www.w3.org/2000/svg" version="1.1" x="0" y="0" style="width:256px;height:256px" xml:space="preserve" opacity="1" viewBox="0 0 512 512">
  <path d="M509.531 289.882a54.106 54.106 0 00-7.828-15.453 29.163 29.163 0 00-1.672-2.203c-1.063-1.734-2.281-3.344-3.688-4.938l-8.281-7.297-37.625-33.078-20.25-17.781 38.625-34.234c5.813-5.156 6.344-14.031 1.203-19.844-5.078-5.828-13.969-6.359-19.797-1.219l-41.313 36.578-116.702 103.282a39.796 39.796 0 01-26.359 9.953c-2.797 0-5.594-.266-8.406-.875l-66.719-14.766-80.563-17.781-56.469-12.5-8.094-1.797c-2.547-.875-4.813-2.016-6.813-3.484a24.426 24.426 0 01-7.5-8.828 24.615 24.615 0 01-2.75-11.297c0-2.406.406-4.953 1.156-7.422a25.873 25.873 0 013.672-7.203c2.281-3.219 5.344-5.766 8.813-7.5a24.22 24.22 0 0111.234-2.75c.672 0 1.344.078 2 .078l58.234 12.563 135.047 29.219c16.703 3.672 34.156-.875 46.984-12.234l83.016-73.125 84.781-74.672c7.625-6.766 10.828-17.188 8.219-27.016-2.531-9.891-10.438-17.453-20.391-19.594l-10.563-2.266-77.016-16.656-97.528-21.047a53.481 53.481 0 00-46.984 12.234L88.906 129.382l-39.172 34.422-34.078 29.953a34.1 34.1 0 00-3.688 4.938c-.609.734-1.141 1.406-1.672 2.203-3.344 4.563-6.016 9.766-7.828 15.453A53.512 53.512 0 000 232.32c0 11.438 3.672 22.328 10.156 31.281 3.281 4.547 7.219 8.563 11.844 11.906a51.158 51.158 0 0015.438 7.75l.594.203 59.438 13.031 11.5 10.234-1.688 1.469-39.156 34.438-34.095 29.938a37.784 37.784 0 00-3.688 4.953c-.594.734-1.125 1.406-1.656 2.203a53.026 53.026 0 00-7.828 15.438 53.093 53.093 0 00-2.484 15.984c0 11.422 3.688 22.313 10.156 31.281 3.281 4.547 7.219 8.563 11.844 11.906a51.532 51.532 0 0015.438 7.75l.594.203 59.438 13.031 56.297 12.297 97.734 21.391c4.75 1.063 9.547 1.547 14.375 1.547a67.981 67.981 0 0044.906-16.922l3.344-2.938 116.063-102.75 38.641-34.234a13.573 13.573 0 003.734-5.344 51.96 51.96 0 0010.906-11.234c6.469-8.953 10.156-19.844 10.156-31.281a53.488 53.488 0 00-2.47-15.969zm-82.218 79.344L310.578 472.507a39.681 39.681 0 01-26.328 9.969 40.71 40.71 0 01-8.438-.875l-66.703-14.781-80.547-17.781-56.5-12.484-8.094-1.813c-2.531-.875-4.813-2-6.813-3.484a24.527 24.527 0 01-7.5-8.813 24.645 24.645 0 01-2.734-11.297c0-2.406.406-4.953 1.141-7.421a26.229 26.229 0 013.688-7.219c2.266-3.219 5.344-5.75 8.813-7.484 3.406-1.813 7.281-2.75 11.234-2.75.672 0 1.328.063 2 .063l58.234 12.578 135.031 29.203c16.719 3.688 34.156-.859 47-12.234l36.094-31.75 80.156-17.578-2.999 2.67zm53.406-52.062a24.379 24.379 0 01-7.5 8.813c-2 1.469-4.281 2.609-6.813 3.484L394 345.492 254.563 376.32c-2.75.594-5.625.859-8.422.859a39.789 39.789 0 01-26.344-9.953l-66.047-58.422 97.734 21.391c4.75 1.063 9.563 1.531 14.359 1.531 16.391 0 32.375-5.875 44.938-16.922l3.344-2.938 142.516-30.813c.672 0 1.281-.063 1.953-.063 2.531 0 5 .391 7.344 1.141 1.344.391 2.672.922 3.938 1.594 3.422 1.734 6.5 4.281 8.844 7.5 1.531 2.125 2.719 4.531 3.594 7.203a24.388 24.388 0 011.156 7.422c-.001 3.954-.97 7.829-2.751 11.314z" fill="#4b4b4b"/>
</svg>
